<svg width="600" height="400" viewBox="0 0 600 400" fill="none" xmlns="http://www.w3.org/2000/svg">
  <!-- Background -->
  <rect width="600" height="400" fill="url(#gradient1)"/>
  
  <!-- Shopping bags -->
  <rect x="120" y="150" width="80" height="100" rx="8" fill="#fff" opacity="0.9"/>
  <rect x="125" y="155" width="70" height="90" rx="4" fill="#007bff" opacity="0.8"/>
  <circle cx="140" cy="145" r="8" fill="#fff"/>
  <circle cx="180" cy="145" r="8" fill="#fff"/>
  <path d="M135 145h10" stroke="#007bff" stroke-width="2" stroke-linecap="round"/>
  <path d="M175 145h10" stroke="#007bff" stroke-width="2" stroke-linecap="round"/>
  
  <!-- Shopping cart -->
  <rect x="380" y="180" width="120" height="80" rx="8" fill="#fff" opacity="0.9"/>
  <rect x="385" y="185" width="110" height="70" rx="4" fill="#28a745" opacity="0.8"/>
  <circle cx="410" cy="275" r="12" fill="#333"/>
  <circle cx="470" cy="275" r="12" fill="#333"/>
  <path d="M385 185l-15-30h-20" stroke="#333" stroke-width="2" stroke-linecap="round"/>
  
  <!-- Gift box -->
  <rect x="280" y="100" width="60" height="60" rx="4" fill="#dc3545" opacity="0.9"/>
  <rect x="275" y="95" width="70" height="70" rx="8" fill="#fff" opacity="0.1"/>
  <path d="M280 130h60" stroke="#fff" stroke-width="3"/>
  <path d="M310 100v60" stroke="#fff" stroke-width="3"/>
  <path d="M300 95c0-10 10-15 20-10" stroke="#fff" stroke-width="2" fill="none"/>
  <path d="M320 95c0-10-10-15-20-10" stroke="#fff" stroke-width="2" fill="none"/>
  
  <!-- Floating elements -->
  <circle cx="100" cy="80" r="20" fill="#ffc107" opacity="0.7"/>
  <circle cx="500" cy="60" r="15" fill="#17a2b8" opacity="0.7"/>
  <circle cx="80" cy="300" r="25" fill="#6f42c1" opacity="0.6"/>
  <circle cx="520" cy="320" r="18" fill="#fd7e14" opacity="0.7"/>
  
  <!-- Credit card -->
  <rect x="200" y="280" width="100" height="60" rx="8" fill="#343a40" opacity="0.9"/>
  <rect x="210" y="290" width="80" height="8" rx="4" fill="#fff" opacity="0.8"/>
  <rect x="210" y="305" width="30" height="4" rx="2" fill="#ffc107"/>
  <rect x="210" y="315" width="40" height="4" rx="2" fill="#fff" opacity="0.6"/>
  <rect x="210" y="325" width="50" height="4" rx="2" fill="#fff" opacity="0.6"/>
  
  <!-- Mobile phone -->
  <rect x="450" y="120" width="40" height="70" rx="8" fill="#333" opacity="0.9"/>
  <rect x="455" y="130" width="30" height="45" rx="2" fill="#007bff" opacity="0.8"/>
  <circle cx="470" cy="182" r="4" fill="#fff"/>
  <rect x="460" y="125" width="20" height="2" rx="1" fill="#fff" opacity="0.5"/>
  
  <!-- Stars -->
  <polygon points="50,200 52,206 58,206 53,210 55,216 50,212 45,216 47,210 42,206 48,206" fill="#ffc107" opacity="0.8"/>
  <polygon points="550,150 552,156 558,156 553,160 555,166 550,162 545,166 547,160 542,156 548,156" fill="#ffc107" opacity="0.8"/>
  <polygon points="150,50 152,56 158,56 153,60 155,66 150,62 145,66 147,60 142,56 148,56" fill="#ffc107" opacity="0.8"/>
  
  <!-- Gradient definitions -->
  <defs>
    <linearGradient id="gradient1" x1="0%" y1="0%" x2="100%" y2="100%">
      <stop offset="0%" style="stop-color:#667eea;stop-opacity:1" />
      <stop offset="100%" style="stop-color:#764ba2;stop-opacity:1" />
    </linearGradient>
  </defs>
</svg>
